<svg xmlns="http://www.w3.org/2000/svg" width="900" height="290" viewBox="0 0 900 290" role="img"><title>Public repositories by primary language</title><rect width="900" height="290" rx="14" fill="#0d1117"/><text x="28" y="38" font-family="Arial" font-size="21" font-weight="700" fill="#e6edf3">Learning in public</text><text x="28" y="68" font-family="Arial" font-size="15" fill="#8b949e">15 public source repositories · primary language per repository</text><text x="28" y="108" font-family="Arial" font-size="15" fill="#e6edf3">C</text><rect x="200" y="94" width="590" height="14" rx="7" fill="#223440"/><rect x="200" y="94" width="590.0" height="14" rx="7" fill="#0891b2"/><text x="815" y="108" font-family="Arial" font-size="15" fill="#e6edf3">5</text><text x="28" y="137" font-family="Arial" font-size="15" fill="#e6edf3">Python</text><rect x="200" y="123" width="590" height="14" rx="7" fill="#223440"/><rect x="200" y="123" width="472.0" height="14" rx="7" fill="#0891b2"/><text x="815" y="137" font-family="Arial" font-size="15" fill="#e6edf3">4</text><text x="28" y="166" font-family="Arial" font-size="15" fill="#e6edf3">C++</text><rect x="200" y="152" width="590" height="14" rx="7" fill="#223440"/><rect x="200" y="152" width="118.0" height="14" rx="7" fill="#0891b2"/><text x="815" y="166" font-family="Arial" font-size="15" fill="#e6edf3">1</text><text x="28" y="195" font-family="Arial" font-size="15" fill="#e6edf3">JavaScript</text><rect x="200" y="181" width="590" height="14" rx="7" fill="#223440"/><rect x="200" y="181" width="118.0" height="14" rx="7" fill="#0891b2"/><text x="815" y="195" font-family="Arial" font-size="15" fill="#e6edf3">1</text><text x="28" y="224" font-family="Arial" font-size="15" fill="#e6edf3">Jupyter Notebook</text><rect x="200" y="210" width="590" height="14" rx="7" fill="#223440"/><rect x="200" y="210" width="118.0" height="14" rx="7" fill="#0891b2"/><text x="815" y="224" font-family="Arial" font-size="15" fill="#e6edf3">1</text><text x="28" y="269" font-family="Arial" font-size="13" fill="#8b949e">Not a skill ranking · 3 without a primary language · updated 2026-09-12</text></svg>